#!OML:ASF H:\ManfredETheater\Project 1\Capture day 1\Session 1\subject.ASF
:FULLY-SPECIFIED
:DEGREES
90
root 6.27273 21.8547 6.63598 -180.942 -20.9022 -174.645
lowerback 16.5459 3.94679 7.27885
upperback -0.600093 6.69471 1.67512
thorax -9.30279 2.83002 -3.85085
lowerneck -19.8391 -2.83247 -3.32385
upperneck 8.78981 -2.80269 -1.47686
head 5.88491 -1.6358 -0.244272
rclavicle 2.36554e-014 1.07344e-014
rhumerus -5.55832 36.3493 -68.6793
rradius 105.045
rwrist -0.81277
rhand -26.2341 10.1927
rfingers 7.12502
rthumb 0.319673 -19.7869
lclavicle 2.36554e-014 1.07344e-014
lhumerus -49.5169 -7.92683 42.624
lradius 64.034
lwrist 9.17993
lhand -33.29 -11.484
lfingers 7.12502
lthumb -6.49414 18.3965
rfemur 25.9559 1.35868 27.5766
rtibia -6.36111e-015
rfoot 42.5303 -13.752
rtoes -0.913157
lfemur -85.5383 6.85521 -7.08782
ltibia 70.4747
lfoot 1.42112 -5.79585
ltoes -8.79004
91
root 6.10385 22.038 6.22895 -181.817 -21.0401 -174.133
lowerback 16.6601 3.90621 7.3676
upperback -0.430156 6.66101 1.94168
thorax -9.20584 2.81502 -3.60586
lowerneck -19.8204 -2.84258 -3.3589
upperneck 9.01508 -2.79195 -1.53734
head 5.95427 -1.63813 -0.258774
rclavicle 5.97845e-014 4.21423e-014
rhumerus -6.22715 36.4537 -68.533
rradius 105.316
rwrist -0.428777
rhand -26.0453 10.0857
rfingers 7.12502
rthumb 0.502031 -19.8934
lclavicle 5.97845e-014 4.21423e-014
lhumerus -49.6941 -7.75242 41.4871
lradius 61.6662
lwrist 9.26961
lhand -33.1649 -11.2369
lfingers 7.12502
lthumb -6.37339 18.6472
rfemur 27.5841 0.868882 27.8943
rtibia -1.59028e-014
rfoot 43.5758 -12.3062
rtoes -0.452699
lfemur -84.1143 6.43061 -6.20275
ltibia 67.256
lfoot 1.03038 -5.43523
ltoes -9.31208
92
root 5.93431 22.209 5.8207 -182.662 -21.2574 -173.691
lowerback 16.7564 3.83592 7.43315
upperback -0.266636 6.57877 2.15363
thorax -9.10635 2.77751 -3.39543
lowerneck -19.8276 -2.86133 -3.36185
upperneck 9.25241 -2.80203 -1.57634
head 6.03161 -1.6477 -0.274198
rclavicle -1.67973e-014 2.70347e-014
rhumerus -7.04446 36.4589 -68.463
rradius 105.615
rwrist -0.128014
rhand -25.9077 10.0156
rfingers 7.12502
rthumb 0.634913 -19.9632
lclavicle -1.67973e-014 2.70347e-014
lhumerus -49.8326 -7.56237 40.3154
lradius 59.3096
lwrist 9.1103
lhand -33.0447 -11.0002
lfingers 7.12502
lthumb -6.25734 18.8874
rfemur 29.1612 0.303051 28.1164
rtibia 6.36111e-014
rfoot 44.307 -10.97
rtoes -0.310343
lfemur -82.6711 5.89786 -5.44382
ltibia 64.1861
lfoot 0.687315 -5.0676
ltoes -9.66852
93
root 5.76344 22.3688 5.41126 -183.444 -21.5372 -173.326
lowerback 16.8113 3.74316 7.48102
upperback -0.117951 6.45763 2.29726
thorax -8.9969 2.72265 -3.2378
lowerneck -19.8465 -2.88922 -3.3436
upperneck 9.4968 -2.83501 -1.5672
head 6.11359 -1.66316 -0.280223
rclavicle -6.80837e-015 -5.52621e-014
rhumerus -8.00928 36.361 -68.4617
rradius 105.942
rwrist 0.0835237
rhand -25.8199 9.95091
rfingers 7.12502
rthumb 0.719668 -20.0276
lclavicle -6.80837e-015 -5.52621e-014
lhumerus -49.913 -7.37427 39.093
lradius 56.9598
lwrist 8.72859
lhand -32.9342 -10.7327
lfingers 7.12502
lthumb -6.15067 19.158
rfemur 24.8369 -0.430666 28.1698
rtibia 11.6331
rfoot 38.9628 -9.46362
rtoes -0.34706
lfemur -81.2425 5.2863 -4.82451
ltibia 61.2828
lfoot 0.384436 -4.70822
ltoes -9.87143
94
root 5.59102 22.5181 5.00067 -184.145 -21.8668 -173.037
lowerback 16.8071 3.63252 7.51614
upperback 0.013692 6.30368 2.36856
thorax -8.8686 2.65393 -3.14014
lowerneck -19.8812 -2.92502 -3.31594
upperneck 9.74686 -2.8886 -1.4937
head 6.20086 -1.68226 -0.269548
rclavicle 6.53505e-014 -1.23246e-014
rhumerus -9.09025 36.1592 -68.5018
rradius 106.284
rwrist 0.194539
rhand -25.7525 9.89454
rfingers 7.12502
rthumb 0.784834 -20.0838
lclavicle 6.53505e-014 -1.23246e-014
lhumerus -49.9247 -7.19491 37.8135
lradius 54.62
lwrist 8.17269
lhand -32.8198 -10.3661
lfingers 7.12502
lthumb -6.04028 19.5277
rfemur 23.2175 -0.715444 28.4283
rtibia 17.6687
rfoot 36.3828 -8.93859
rtoes -0.514257
lfemur -79.8534 4.62635 -4.35351
ltibia 58.5586
lfoot 0.115068 -4.36807
ltoes -10.0245
95
root 5.41663 22.6572 4.58935 -184.757 -22.217 -172.811
lowerback 16.7382 3.51307 7.55155
upperback 0.128227 6.1315 2.37271
thorax -8.7168 2.57807 -3.10707
lowerneck -19.9296 -2.96594 -3.29252
upperneck 9.99994 -2.95762 -1.34669
head 6.29264 -1.70201 -0.236404
rclavicle 5.3647e-014 -1.35174e-014
rhumerus -10.2645 35.8638 -68.5577
rradius 106.635
rwrist 0.212671
rhand -25.6997 9.81421
rfingers 7.12502
rthumb 0.835821 -20.1639
lclavicle 5.3647e-014 -1.35174e-014
lhumerus -49.8692 -7.03279 36.4844
lradius 52.3031
lwrist 7.50864
lhand -32.6904 -9.84084
lfingers 7.12502
lthumb -5.91532 20.0566
rfemur 21.9518 -1.09918 28.5799
rtibia 22.7852
rfoot 34.2383 -8.65213
rtoes -0.875927
lfemur -78.5154 3.96442 -4.02677
ltibia 56.0269
lfoot -0.128361 -4.04039
ltoes -10.151
96
root 5.24042 22.7863 4.17803 -185.286 -22.5675 -172.631
lowerback 16.6124 3.39265 7.59224
upperback 0.225081 5.95391 2.32264
thorax -8.54683 2.50071 -3.13109
lowerneck -19.9746 -3.009 -3.27155
upperneck 10.242 -3.0376 -1.14673
head 6.38145 -1.72185 -0.186779
rclavicle 1.40069e-013 3.97569e-016
rhumerus -11.5108 35.4865 -68.6001
rradius 106.987
rwrist 0.143983
rhand -25.639 9.72222
rfingers 7.12502
rthumb 0.894406 -20.2556
lclavicle 1.40069e-013 3.97569e-016
lhumerus -49.759 -6.89676 35.1224
lradius 50.0223
lwrist 6.81305
lhand -32.5268 -9.17473
lfingers 7.12502
lthumb -5.75737 20.7271
rfemur 20.7613 -1.56353 28.6365
rtibia 27.537
rfoot 32.2622 -8.57741
rtoes -1.50398
lfemur -77.2292 3.32995 -3.8294
ltibia 53.6954
lfoot -0.337519 -3.72101
ltoes -10.2468
97
root 5.06241 22.9057 3.76731 -185.748 -22.8927 -172.481
lowerback 16.4452 3.27762 7.64217
upperback 0.309824 5.7815 2.23628
thorax -8.36246 2.42642 -3.19852
lowerneck -20.0307 -3.04643 -3.26172
upperneck 10.4852 -3.11398 -0.905522
head 6.47356 -1.73634 -0.121758
rclavicle 4.6615e-014 -2.98177e-015
rhumerus -12.8107 35.0461 -68.6029
rradius 107.338
rwrist 0.00130631
rhand -25.5445 9.61176
rfingers 7.12502
rthumb 0.985644 -20.3657
lclavicle 4.6615e-014 -2.98177e-015
lhumerus -49.622 -6.7924 33.7577
lradius 47.808
lwrist 6.18163
lhand -32.3282 -8.34656
lfingers 7.12502
lthumb -5.5656 21.5604
rfemur 19.5585 -2.07935 28.6166
rtibia 32.1088
rfoot 30.4012 -8.65492
rtoes -2.32253
lfemur -75.9812 2.75449 -3.7445
ltibia 51.5701
lfoot -0.511082 -3.3901
ltoes -10.3373
98
root 4.88279 23.0149 3.35774 -186.159 -23.1733 -172.355
lowerback 16.2558 3.17538 7.68927
upperback 0.385979 5.62399 2.13242
thorax -8.17305 2.35981 -3.28583
lowerneck -20.0704 -3.07624 -3.25021
upperneck 10.7054 -3.1832 -0.667052
head 6.55577 -1.74717 -0.0565375
rclavicle 4.54968e-014 -4.31363e-014
rhumerus -14.1531 34.5613 -68.542
rradius 107.684
rwrist -0.186111
rhand -25.3998 9.50002
rfingers 7.12502
rthumb 1.1254 -20.4768
lclavicle 4.54968e-014 -4.31363e-014
lhumerus -49.4865 -6.71796 32.4159
lradius 45.6789
lwrist 5.66424
lhand -32.0977 -7.39282
lfingers 7.12502
lthumb -5.34307 22.5198
rfemur 18.3194 -2.6177 28.5319
rtibia 36.5786
rfoot 28.6463 -8.82294
rtoes -3.24501
lfemur -74.755 2.25575 -3.75851
ltibia 49.6529
lfoot -0.642611 -3.04124
ltoes -10.3679
99
root 4.70193 23.1134 2.94966 -186.537 -23.4034 -172.252
lowerback 16.0656 3.08577 7.7176
upperback 0.457284 5.48046 2.02725
thorax -7.98974 2.30039 -3.36797
lowerneck -20.0996 -3.09122 -3.23682
upperneck 10.9127 -3.23214 -0.451029
head 6.63183 -1.75005 0.00375636
rclavicle -7.48797e-014 4.67144e-015
rhumerus -15.5245 34.0615 -68.3994
rradius 108.024
rwrist -0.403354
rhand -25.2093 9.37043
rfingers 7.12502
rthumb 1.30943 -20.6053
lclavicle -7.48797e-014 4.67144e-015
lhumerus -49.3878 -6.66105 31.1146
lradius 43.6563
lwrist 5.2851
lhand -31.8261 -6.4078
lfingers 7.12502
lthumb -5.08085 23.5113
rfemur 17.0435 -3.16089 28.3917
rtibia 40.9791
rfoot 26.9911 -9.03707
rtoes -4.17503
lfemur -73.536 1.83929 -3.8636
ltibia 47.9417
lfoot -0.721631 -2.67927
ltoes -10.3281
100
root 4.52005 23.2 2.54325 -186.902 -23.5779 -172.165
lowerback 15.893 3.01141 7.71679
upperback 0.524792 5.35484 1.93624
thorax -7.82341 2.24973 -3.4245
lowerneck -20.1038 -3.09183 -3.22154
upperneck 11.1053 -3.25914 -0.274181
head 6.69833 -1.74583 0.0541063
rclavicle -6.93262e-015 1.55052e-014
rhumerus -16.9383 33.5633 -68.1714
rradius 108.364
rwrist -0.613812
rhand -24.9699 9.22923
rfingers 7.12502
rthumb 1.54066 -20.745
lclavicle -6.93262e-015 1.55052e-014
lhumerus -49.3546 -6.62447 29.8772
lradius 41.7624
lwrist 5.05188
lhand -31.5594 -5.40573
lfingers 7.12502
lthumb -4.82334 24.5194
rfemur 15.7426 -3.69243 28.2087
rtibia 45.3189
rfoot 25.4404 -9.26631
rtoes -5.00378
lfemur -72.3089 1.50369 -4.03951
ltibia 46.4296
lfoot -0.741736 -2.31472
ltoes -10.2037
101
root 4.33751 23.2741 2.13863 -187.263 -23.7055 -172.104
lowerback 15.7538 2.95178 7.66869
upperback 0.58996 5.24503 1.86699
thorax -7.68354 2.2069 -3.43768
lowerneck -20.0805 -3.08029 -3.22032
upperneck 11.287 -3.26344 -0.129964
head 6.75637 -1.73439 0.0992434
rclavicle -1.61109e-014 -1.62755e-014
rhumerus -18.3884 33.0746 -67.8457
rradius 108.7
rwrist -0.808703
rhand -24.7032 9.07163
rfingers 7.12502
rthumb 1.79818 -20.9005
lclavicle -1.61109e-014 -1.62755e-014
lhumerus -49.4025 -6.59321 28.7061
lradius 40.0068
lwrist 4.90781
lhand -31.2941 -4.44809
lfingers 7.12502
lthumb -4.56716 25.4827
rfemur 14.429 -4.21218 27.9773
rtibia 49.5934
rfoot 23.9975 -9.48547
rtoes -5.66291
lfemur -71.0645 1.23633 -4.2811
ltibia 45.1046
lfoot -0.701543 -1.96277
ltoes -9.99349
102
root 4.1543 23.3347 1.73549 -187.63 -23.7932 -172.07
lowerback 15.6605 2.90496 7.56794
upperback 0.650763 5.14911 1.82241
thorax -7.57972 2.17057 -3.40175
lowerneck -20.0291 -3.06054 -3.23228
upperneck 11.464 -3.24995 -0.0199111
head 6.80781 -1.71832 0.137904
rclavicle 2.14858e-014 2.29845e-015
rhumerus -19.879 32.6057 -67.422
rradius 109.032
rwrist -0.978243
rhand -24.4098 8.90201
rfingers 7.12502
rthumb 2.08155 -21.0676
lclavicle 2.14858e-014 2.29845e-015
lhumerus -49.5459 -6.56836 27.605
lradius 38.405
lwrist 4.80007
lhand -31.0598 -3.51514
lfingers 7.12502
lthumb -4.34089 26.4204
rfemur 13.1149 -4.72175 27.6965
rtibia 53.79
rfoot 22.6802 -9.67926
rtoes -6.08921
lfemur -69.7942 1.02336 -4.57548
ltibia 43.9495
lfoot -0.598093 -1.64655
ltoes -9.82191
103
root 3.97051 23.3813 1.33375 -188.008 -23.8522 -172.061
lowerback 15.6186 2.86583 7.41927
upperback 0.707306 5.06142 1.8007
thorax -7.51464 2.13762 -3.32031
lowerneck -19.9602 -3.03111 -3.26095
upperneck 11.645 -3.21741 0.071684
head 6.85741 -1.69578 0.175683
rclavicle -3.13148e-014 2.2413e-014
rhumerus -21.4011 32.1654 -66.9023
rradius 109.355
rwrist -1.12352
rhand -24.1134 8.72625
rfingers 7.12502
rthumb 2.36784 -21.2404
lclavicle -3.13148e-014 2.2413e-014
lhumerus -49.791 -6.55541 26.5732
lradius 36.9661
lwrist 4.67878
lhand -30.8736 -2.62004
lfingers 7.12502
lthumb -4.16105 27.3191
rfemur 11.8084 -5.22618 27.3673
rtibia 57.8888
rfoot 21.4915 -9.85727
rtoes -6.14717
lfemur -68.4954 0.844071 -4.90043
ltibia 42.9441
lfoot -0.429021 -1.39012
ltoes -9.72862
